REM DIRINDEX 1\2,1\3
REM DIRNAME cjc039,folder01,folder02
TITLE ""
FILE "3321-3340.mp3" MP3
  TRACK 01 AUDIO
    TITLE "0:"
    INDEX 01 00:00:00
  TRACK 02 AUDIO
    TITLE "2:cjc039_5641"
    INDEX 01 00:00:25
  TRACK 03 AUDIO
    TITLE "0:"
    INDEX 01 00:01:24
  TRACK 04 AUDIO
    TITLE "3:cjc039_5642"
    INDEX 01 00:02:04
  TRACK 05 AUDIO
    TITLE "0:"
    INDEX 01 00:05:48
  TRACK 06 AUDIO
    TITLE "2:cjc039_5643"
    INDEX 01 00:07:27
  TRACK 07 AUDIO
    TITLE "0:"
    INDEX 01 00:08:48
  TRACK 08 AUDIO
    TITLE "3:cjc039_5644"
    INDEX 01 00:09:28
  TRACK 09 AUDIO
    TITLE "0:"
    INDEX 01 00:12:52
  TRACK 10 AUDIO
    TITLE "2:cjc039_5645"
    INDEX 01 00:14:25
  TRACK 11 AUDIO
    TITLE "0:"
    INDEX 01 00:15:58
  TRACK 12 AUDIO
    TITLE "3:cjc039_5646"
    INDEX 01 00:16:34
  TRACK 13 AUDIO
    TITLE "0:"
    INDEX 01 00:19:69
  TRACK 14 AUDIO
    TITLE "2:cjc039_5647"
    INDEX 01 00:21:47
  TRACK 15 AUDIO
    TITLE "0:"
    INDEX 01 00:22:66
  TRACK 16 AUDIO
    TITLE "3:cjc039_5648"
    INDEX 01 00:23:36
  TRACK 17 AUDIO
    TITLE "0:"
    INDEX 01 00:26:54
  TRACK 18 AUDIO
    TITLE "2:cjc039_5649"
    INDEX 01 00:28:27
  TRACK 19 AUDIO
    TITLE "0:"
    INDEX 01 00:29:48
  TRACK 20 AUDIO
    TITLE "3:cjc039_5650"
    INDEX 01 00:30:24
  TRACK 21 AUDIO
    TITLE "0:"
    INDEX 01 00:34:45
  TRACK 22 AUDIO
    TITLE "2:cjc039_5651"
    INDEX 01 00:36:19
  TRACK 23 AUDIO
    TITLE "0:"
    INDEX 01 00:37:52
  TRACK 24 AUDIO
    TITLE "3:cjc039_5652"
    INDEX 01 00:38:28
  TRACK 25 AUDIO
    TITLE "0:"
    INDEX 01 00:42:74
  TRACK 26 AUDIO
    TITLE "2:cjc039_5653"
    INDEX 01 00:44:54
  TRACK 27 AUDIO
    TITLE "0:"
    INDEX 01 00:45:63
  TRACK 28 AUDIO
    TITLE "3:cjc039_5654"
    INDEX 01 00:46:43
  TRACK 29 AUDIO
    TITLE "0:"
    INDEX 01 00:49:63
  TRACK 30 AUDIO
    TITLE "2:cjc039_5655"
    INDEX 01 00:51:40
  TRACK 31 AUDIO
    TITLE "0:"
    INDEX 01 00:52:61
  TRACK 32 AUDIO
    TITLE "3:cjc039_5656"
    INDEX 01 00:53:39
  TRACK 33 AUDIO
    TITLE "0:"
    INDEX 01 00:57:52
  TRACK 34 AUDIO
    TITLE "2:cjc039_5657"
    INDEX 01 00:59:32
  TRACK 35 AUDIO
    TITLE "0:"
    INDEX 01 01:00:51
  TRACK 36 AUDIO
    TITLE "3:cjc039_5658"
    INDEX 01 01:01:27
  TRACK 37 AUDIO
    TITLE "0:"
    INDEX 01 01:04:50
  TRACK 38 AUDIO
    TITLE "2:cjc039_5659"
    INDEX 01 01:06:26
  TRACK 39 AUDIO
    TITLE "0:"
    INDEX 01 01:07:63
  TRACK 40 AUDIO
    TITLE "3:cjc039_5660"
    INDEX 01 01:08:40
  TRACK 41 AUDIO
    TITLE "0:"
    INDEX 01 01:12:52
  TRACK 42 AUDIO
    TITLE "2:cjc039_5661"
    INDEX 01 01:14:31
  TRACK 43 AUDIO
    TITLE "0:"
    INDEX 01 01:15:42
  TRACK 44 AUDIO
    TITLE "3:cjc039_5662"
    INDEX 01 01:16:18
  TRACK 45 AUDIO
    TITLE "0:"
    INDEX 01 01:19:60
  TRACK 46 AUDIO
    TITLE "2:cjc039_5663"
    INDEX 01 01:21:41
  TRACK 47 AUDIO
    TITLE "0:"
    INDEX 01 01:22:60
  TRACK 48 AUDIO
    TITLE "3:cjc039_5664"
    INDEX 01 01:23:38
  TRACK 49 AUDIO
    TITLE "0:"
    INDEX 01 01:26:27
  TRACK 50 AUDIO
    TITLE "2:cjc039_5665"
    INDEX 01 01:28:06
  TRACK 51 AUDIO
    TITLE "0:"
    INDEX 01 01:29:11
  TRACK 52 AUDIO
    TITLE "3:cjc039_5666"
    INDEX 01 01:29:68
  TRACK 53 AUDIO
    TITLE "0:"
    INDEX 01 01:33:40
  TRACK 54 AUDIO
    TITLE "2:cjc039_5667"
    INDEX 01 01:35:14
  TRACK 55 AUDIO
    TITLE "0:"
    INDEX 01 01:36:39
  TRACK 56 AUDIO
    TITLE "3:cjc039_5668"
    INDEX 01 01:37:15
  TRACK 57 AUDIO
    TITLE "0:"
    INDEX 01 01:41:30
  TRACK 58 AUDIO
    TITLE "2:cjc039_5669"
    INDEX 01 01:43:03
  TRACK 59 AUDIO
    TITLE "0:"
    INDEX 01 01:44:26
  TRACK 60 AUDIO
    TITLE "3:cjc039_5670"
    INDEX 01 01:45:02
  TRACK 61 AUDIO
    TITLE "0:"
    INDEX 01 01:48:52
  TRACK 62 AUDIO
    TITLE "2:cjc039_5671"
    INDEX 01 01:50:31
  TRACK 63 AUDIO
    TITLE "0:"
    INDEX 01 01:52:06
  TRACK 64 AUDIO
    TITLE "3:cjc039_5672"
    INDEX 01 01:52:59
  TRACK 65 AUDIO
    TITLE "0:"
    INDEX 01 01:56:39
  TRACK 66 AUDIO
    TITLE "2:cjc039_5673"
    INDEX 01 01:58:11
  TRACK 67 AUDIO
    TITLE "0:"
    INDEX 01 01:59:24
  TRACK 68 AUDIO
    TITLE "3:cjc039_5674"
    INDEX 01 02:00:04
  TRACK 69 AUDIO
    TITLE "0:"
    INDEX 01 02:03:34
  TRACK 70 AUDIO
    TITLE "2:cjc039_5675"
    INDEX 01 02:05:09
  TRACK 71 AUDIO
    TITLE "0:"
    INDEX 01 02:06:18
  TRACK 72 AUDIO
    TITLE "3:cjc039_5676"
    INDEX 01 02:06:69
  TRACK 73 AUDIO
    TITLE "0:"
    INDEX 01 02:10:24
  TRACK 74 AUDIO
    TITLE "2:cjc039_5677"
    INDEX 01 02:12:03
  TRACK 75 AUDIO
    TITLE "0:"
    INDEX 01 02:13:24
  TRACK 76 AUDIO
    TITLE "3:cjc039_5678"
    INDEX 01 02:14:02
  TRACK 77 AUDIO
    TITLE "0:"
    INDEX 01 02:17:00
  TRACK 78 AUDIO
    TITLE "2:cjc039_5679"
    INDEX 01 02:18:45
  TRACK 79 AUDIO
    TITLE "0:"
    INDEX 01 02:20:09
  TRACK 80 AUDIO
    TITLE "3:cjc039_5680"
    INDEX 01 02:20:63
  TRACK 81 AUDIO
    TITLE "0:"
    INDEX 01 02:25:23
